<svg width="21" height="21" viewBox="0 0 21 21" fill="none" xmlns="http://www.w3.org/2000/svg">
<path d="M12.8717 5.39089C13.4541 4.8086 14.4023 4.8086 14.9846 5.39089C15.567 5.97317 15.567 6.92114 14.9846 7.50342C14.6473 7.84074 14.1856 7.99339 13.7169 7.92596C13.6956 7.92241 13.6707 7.92241 13.6494 7.92596C13.5109 7.90818 13.3653 7.92596 13.2268 7.98984C13.0315 8.0786 12.893 8.24193 12.8255 8.43012C12.7581 8.61474 12.7616 8.82421 12.8504 9.01241C13.3511 10.0953 13.1203 11.3913 12.2751 12.2363C11.4299 13.0813 10.1338 13.3121 9.0507 12.8114C8.85538 12.7227 8.64586 12.7191 8.45766 12.7901C8.27298 12.8576 8.11673 12.9961 8.02797 13.1878C7.97115 13.3121 7.94983 13.4399 7.95696 13.5677C7.95338 13.5925 7.95338 13.6174 7.95696 13.6423C8.03507 14.118 7.87882 14.6044 7.53791 14.9453C6.95552 15.5276 6.00738 15.5276 5.42498 14.9453C5.1409 14.6613 4.9882 14.2885 4.9882 13.8873C4.9882 13.4896 5.14445 13.1132 5.42498 12.8292C5.76234 12.4919 6.224 12.3392 6.69273 12.4067C6.69983 12.4067 6.70696 12.4067 6.7176 12.4067C6.76732 12.4173 6.81704 12.4244 6.87028 12.4244C6.98039 12.4244 7.09048 12.4031 7.19344 12.3534C7.38521 12.2647 7.52014 12.1084 7.59118 11.9274C7.6622 11.7392 7.6622 11.5262 7.56986 11.3309C7.06915 10.248 7.29997 8.95204 8.14515 8.10703C8.99031 7.26201 10.2865 7.03122 11.3696 7.53184C11.5614 7.6206 11.7744 7.62415 11.9591 7.55669C12.1437 7.48922 12.3035 7.35077 12.3923 7.15903C12.4598 7.00993 12.4775 6.85015 12.4527 6.69748V6.69393C12.3746 6.21815 12.5308 5.73173 12.8717 5.39089ZM11.3945 11.3557C12.0408 10.7095 12.0408 9.66215 11.3945 9.01596C10.7481 8.36976 9.70056 8.36976 9.05425 9.01596C8.40794 9.66215 8.40794 10.7095 9.05425 11.3557C9.70056 12.0019 10.7481 12.0019 11.3945 11.3557ZM10.2119 0.189392C15.7339 0.189392 20.2119 4.66657 20.2119 10.1876C20.2119 15.7087 15.7375 20.1894 10.2119 20.1894C4.68634 20.1894 0.211914 15.7122 0.211914 10.1876C0.211914 4.66303 4.68989 0.189392 10.2119 0.189392ZM15.5422 8.06086C16.4264 7.1768 16.4264 5.74593 15.5422 4.86187C14.6579 3.97779 13.2268 3.97779 12.3426 4.86187C12.0159 5.18849 11.8099 5.59325 11.7247 6.01579C10.1231 5.41218 8.28366 5.79565 7.05851 7.02058C5.83335 8.24548 5.44983 10.0847 6.0571 11.6895C5.63096 11.7747 5.22611 11.9806 4.89586 12.3108C4.01163 13.1949 4.01163 14.6258 4.89586 15.5098C5.78008 16.3939 7.21121 16.3939 8.09544 15.5098C8.42569 15.1796 8.63521 14.7678 8.71687 14.3417C9.21406 14.5263 9.73251 14.6187 10.2474 14.6187C11.3944 14.6187 12.5273 14.1748 13.3689 13.3334C14.5869 12.1155 14.974 10.287 14.381 8.68576C14.8035 8.597 15.2119 8.39105 15.5422 8.06086Z" fill="white"/>
</svg>
