<svg width="21" height="21" viewBox="0 0 21 21" fill="none" xmlns="http://www.w3.org/2000/svg">
<path fill-rule="evenodd" clip-rule="evenodd" d="M10.3079 20.5369C15.8307 20.5369 20.3079 16.0597 20.3079 10.5369C20.3079 5.01402 15.8307 0.536865 10.3079 0.536865C4.78501 0.536865 0.307861 5.01402 0.307861 10.5369C0.307861 16.0597 4.78501 20.5369 10.3079 20.5369ZM6.7766 7.39038C6.7766 6.97305 6.43829 6.63475 6.02096 6.63475C5.60364 6.63475 5.26533 6.97305 5.26533 7.39038V13.6833C5.26533 14.1007 5.60364 14.439 6.02096 14.439C6.43829 14.439 6.7766 14.1007 6.7766 13.6833V7.39038ZM15.3503 7.39041C15.3503 6.97309 15.012 6.63478 14.5946 6.63478C14.1773 6.63478 13.839 6.97309 13.839 7.39041V13.6834C13.839 14.1007 14.1773 14.439 14.5946 14.439C15.012 14.439 15.3503 14.1007 15.3503 13.6834V7.39041ZM12.4512 9.07681C12.8685 9.07681 13.2068 9.41511 13.2068 9.83244V13.6833C13.2068 14.1007 12.8685 14.439 12.4512 14.439C12.0339 14.439 11.6956 14.1007 11.6956 13.6833V9.83244C11.6956 9.41511 12.0339 9.07681 12.4512 9.07681ZM8.91998 9.83244C8.91998 9.41511 8.58167 9.07681 8.16435 9.07681C7.74702 9.07681 7.40871 9.41511 7.40871 9.83244L7.40871 13.6833C7.40871 14.1007 7.74702 14.439 8.16435 14.439C8.58167 14.439 8.91998 14.1007 8.91998 13.6833V9.83244ZM10.3078 11.331C10.7251 11.331 11.0634 11.6693 11.0634 12.0866V13.6833C11.0634 14.1007 10.7251 14.439 10.3078 14.439C9.89045 14.439 9.55215 14.1007 9.55215 13.6833V12.0866C9.55215 11.6693 9.89045 11.331 10.3078 11.331Z" fill="#009FF9"/>
</svg>
